<mxfile host="app.diagrams.net" modified="2024-05-15T07:37:39.222Z" agent="Mozilla/5.0 (Macintosh; Intel Mac OS X 10_15_7) AppleWebKit/537.36 (KHTML, like Gecko) Chrome/124.0.0.0 Safari/537.36" version="24.0.7" etag="BFoiUYl0m5_GkaDaehd2" type="github">
  <diagram name="第 1 页" id="H-pSfVGYmvlcpvljw6b0">
    <mxGraphModel>
      <root>
        <mxCell id="0" />
        <mxCell id="1" parent="0" />
      </root>
    </mxGraphModel>
  </diagram>
</mxfile>
